<?xml version="1.0" encoding="utf-8"?>
<!-- Generator: Adobe Illustrator 21.0.0, SVG Export Plug-In . SVG Version: 6.00 Build 0)  -->
<svg version="1.1" id="ORION" xmlns="http://www.w3.org/2000/svg" xmlns:xlink="http://www.w3.org/1999/xlink" x="0px" y="0px"
	 viewBox="0 0 535.2 83.4" style="enable-background:new 0 0 535.2 83.4;" xml:space="preserve">
<style type="text/css">
	.st0{fill:#2F353E;}
	.st1{fill:#47B4E0;}
	.st2{fill:none;}
	.st3{display:none;fill:#47B4E0;}
	.st4{font-family:'Futura-Medium';}
	.st5{font-size:40px;}
	.st6{letter-spacing:8;}
</style>
<g>
	<path class="st0" d="M39.8,1.9c5.5,0,10.6,1,15.4,3.1c4.8,2.1,9,4.9,12.7,8.5c3.6,3.6,6.5,7.9,8.6,12.7c2.1,4.8,3.1,10,3.1,15.5
		c0,5.5-1,10.7-3.1,15.5c-2.1,4.8-4.9,9-8.6,12.6c-3.6,3.6-7.8,6.4-12.7,8.4c-4.8,2.1-10,3.1-15.4,3.1s-10.6-1-15.4-3.1
		c-4.8-2.1-9-4.9-12.7-8.4C8.1,66.2,5.2,62,3.1,57.2C1,52.4,0,47.2,0,41.7c0-5.5,1-10.6,3.1-15.5c2.1-4.8,4.9-9,8.6-12.7
		C15.3,10,19.5,7.1,24.4,5C29.2,3,34.3,1.9,39.8,1.9z M39.8,9.9c-4.4,0-8.5,0.8-12.3,2.5c-3.8,1.7-7.1,3.9-9.9,6.8
		c-2.8,2.9-5,6.3-6.6,10.1s-2.4,8-2.4,12.3c0,4.3,0.8,8.4,2.4,12.3c1.6,3.8,3.8,7.2,6.7,10.1c2.8,2.9,6.2,5.2,10,6.9
		c3.8,1.7,7.9,2.5,12.2,2.5c4.3,0,8.4-0.8,12.2-2.5c3.8-1.7,7.1-4,10-6.9c2.8-2.9,5.1-6.2,6.7-10.1c1.6-3.8,2.4-7.9,2.4-12.3
		c0-4.3-0.8-8.4-2.4-12.3s-3.8-7.2-6.6-10.1c-2.8-2.9-6.1-5.2-9.9-6.8C48.3,10.7,44.2,9.9,39.8,9.9z"/>
	<path class="st0" d="M125,80h-8.5V3.3h11c3.6,0,7.1,0.3,10.5,0.9c3.3,0.6,6.3,1.6,8.9,3.2c2.6,1.6,4.7,3.7,6.2,6.5
		c1.6,2.7,2.3,6.3,2.3,10.6c0,6-1.7,10.9-5.1,14.7c-3.4,3.8-8.1,6-14,6.5L160.6,80h-10.4l-23.1-33.7H125V80z M125,38.8h2.6
		c2.4,0,4.8-0.2,7.1-0.5c2.3-0.3,4.4-0.9,6.2-1.9c1.8-1,3.3-2.4,4.4-4.2c1.1-1.8,1.7-4.2,1.7-7.2c0-3.1-0.5-5.6-1.6-7.5
		c-1.1-1.9-2.5-3.3-4.3-4.2c-1.8-0.9-3.8-1.5-6.2-1.8c-2.3-0.3-4.8-0.4-7.3-0.4H125V38.8z"/>
	<path class="st0" d="M205.4,80h-8.5V3.3h8.5V80z"/>
	<path class="st0" d="M282.2,1.9c5.5,0,10.6,1,15.4,3.1c4.8,2.1,9,4.9,12.7,8.5c3.6,3.6,6.5,7.9,8.6,12.7c2.1,4.8,3.1,10,3.1,15.5
		c0,5.5-1,10.7-3.1,15.5c-2.1,4.8-4.9,9-8.6,12.6c-3.6,3.6-7.8,6.4-12.7,8.4c-4.8,2.1-10,3.1-15.4,3.1s-10.6-1-15.4-3.1
		c-4.8-2.1-9-4.9-12.7-8.4c-3.6-3.6-6.5-7.7-8.6-12.6c-2.1-4.8-3.1-10-3.1-15.5c0-5.5,1-10.6,3.1-15.5c2.1-4.8,4.9-9,8.6-12.7
		c3.6-3.6,7.8-6.5,12.7-8.5C271.6,3,276.7,1.9,282.2,1.9z M282.2,9.9c-4.4,0-8.5,0.8-12.3,2.5c-3.8,1.7-7.1,3.9-9.9,6.8
		c-2.8,2.9-5,6.3-6.6,10.1c-1.6,3.9-2.4,8-2.4,12.3c0,4.3,0.8,8.4,2.4,12.3c1.6,3.8,3.8,7.2,6.7,10.1c2.8,2.9,6.2,5.2,10,6.9
		c3.8,1.7,7.9,2.5,12.2,2.5c4.3,0,8.4-0.8,12.2-2.5c3.8-1.7,7.1-4,10-6.9c2.8-2.9,5.1-6.2,6.7-10.1c1.6-3.8,2.4-7.9,2.4-12.3
		c0-4.3-0.8-8.4-2.4-12.3c-1.6-3.9-3.8-7.2-6.6-10.1c-2.8-2.9-6.1-5.2-9.9-6.8C290.7,10.7,286.6,9.9,282.2,9.9z"/>
	<path class="st0" d="M359.4,0l59.6,62.7V3.3h8.5v80.2l-59.6-62.6V80h-8.5V0z"/>
</g>
<g>
	<path class="st1" d="M472.3,5.5v5.4c-2.6-2.2-5.4-3.3-8.2-3.3c-3.1,0-5.7,1.1-7.8,3.3c-2.1,2.2-3.2,4.9-3.2,8.1
		c0,3.2,1.1,5.8,3.2,8c2.1,2.2,4.8,3.3,7.9,3.3c1.6,0,3-0.3,4.1-0.8c0.6-0.3,1.3-0.6,1.9-1.1c0.7-0.4,1.4-1,2.1-1.6v5.5
		c-2.6,1.5-5.3,2.2-8.2,2.2c-4.3,0-8-1.5-11-4.5c-3-3-4.6-6.7-4.6-11c0-3.8,1.3-7.3,3.8-10.3c3.1-3.7,7.2-5.5,12.1-5.5
		C467.2,3.3,469.8,4.1,472.3,5.5z"/>
	<path class="st1" d="M503.1,8.4l-3.7,2.2c-0.7-1.2-1.3-2-2-2.3c-0.7-0.4-1.5-0.6-2.5-0.6c-1.3,0-2.3,0.4-3.1,1.1
		c-0.8,0.7-1.2,1.6-1.2,2.7c0,1.5,1.1,2.7,3.3,3.6l3,1.2c2.4,1,4.2,2.2,5.4,3.6s1.7,3.2,1.7,5.2c0,2.8-0.9,5.1-2.8,6.9
		c-1.9,1.8-4.2,2.7-6.9,2.7c-2.6,0-4.8-0.8-6.5-2.3c-1.7-1.5-2.7-3.7-3.1-6.5l4.6-1c0.2,1.8,0.6,3,1.1,3.7c0.9,1.3,2.3,2,4.1,2
		c1.4,0,2.6-0.5,3.5-1.4c0.9-1,1.4-2.2,1.4-3.6c0-0.6-0.1-1.1-0.2-1.6s-0.4-0.9-0.8-1.3s-0.8-0.8-1.3-1.2c-0.5-0.4-1.2-0.7-2-1
		l-2.9-1.2c-4.1-1.7-6.2-4.3-6.2-7.7c0-2.3,0.9-4.2,2.6-5.7c1.7-1.5,3.9-2.3,6.5-2.3C498.5,3.3,501.2,5,503.1,8.4z"/>
	<path class="st1" d="M534.5,8.4l-3.7,2.2c-0.7-1.2-1.3-2-2-2.3c-0.7-0.4-1.5-0.6-2.5-0.6c-1.3,0-2.3,0.4-3.1,1.1
		c-0.8,0.7-1.2,1.6-1.2,2.7c0,1.5,1.1,2.7,3.3,3.6l3,1.2c2.4,1,4.2,2.2,5.4,3.6s1.7,3.2,1.7,5.2c0,2.8-0.9,5.1-2.8,6.9
		c-1.9,1.8-4.2,2.7-6.9,2.7c-2.6,0-4.8-0.8-6.5-2.3c-1.7-1.5-2.7-3.7-3.1-6.5l4.6-1c0.2,1.8,0.6,3,1.1,3.7c0.9,1.3,2.3,2,4.1,2
		c1.4,0,2.6-0.5,3.5-1.4c0.9-1,1.4-2.2,1.4-3.6c0-0.6-0.1-1.1-0.2-1.6s-0.4-0.9-0.8-1.3s-0.8-0.8-1.3-1.2c-0.5-0.4-1.2-0.7-2-1
		l-2.9-1.2c-4.1-1.7-6.2-4.3-6.2-7.7c0-2.3,0.9-4.2,2.6-5.7c1.7-1.5,3.9-2.3,6.5-2.3C529.8,3.3,532.5,5,534.5,8.4z"/>
</g>
<rect x="446.5" y="1.1" class="st2" width="98.5" height="51.8"/>
<text transform="matrix(1 0 0 1 446.4502 34.0775)" class="st3 st4 st5 st6">JS</text>
</svg>
